<svg xmlns="http://www.w3.org/2000/svg" viewBox="0 0 32 32" aria-hidden="true">
  <defs>
    <linearGradient id="g" x1="0" y1="0" x2="1" y2="1">
      <stop offset="0%" stop-color="#2563eb"/>
      <stop offset="100%" stop-color="#005eb8"/>
    </linearGradient>
  </defs>
  <rect width="32" height="32" rx="6" fill="url(#g)"/>
  <g fill="#fff">
    <path d="M16 6c-1.5 3-3.5 4-3.5 7 0 1.93 1.57 3.5 3.5 3.5s3.5-1.57 3.5-3.5c0-3-2-4-3.5-7z"/>
    <path d="M9 14c2.5 0 4.5 1 5 3 .5-2 2.5-3 5-3-1.5 1.5-2 3.5-1 6-2-.5-4-1-4-3 0 2-2 2.5-4 3-1-2.5-1.5-4.5-1-6z"/>
    <circle cx="16" cy="22" r="2"/>
  </g>
</svg>
